<?xml version="1.0" standalone="no"?>
<!DOCTYPE svg PUBLIC "-//W3C//DTD SVG 20010904//EN"
 "http://www.w3.org/TR/2001/REC-SVG-20010904/DTD/svg10.dtd">
<svg version="1.0" xmlns="http://www.w3.org/2000/svg"
 width="1024.000000pt" height="1024.000000pt" viewBox="0 0 1024.000000 1024.000000"
 preserveAspectRatio="xMidYMid meet">

<g transform="translate(0.000000,1024.000000) scale(0.100000,-0.100000)"
fill="#000000" stroke="none">
<path d="M0 5120 l0 -5120 5120 0 5120 0 0 5120 0 5120 -5120 0 -5120 0 0
-5120z m6590 3130 c233 -27 430 -118 581 -269 92 -93 144 -181 174 -296 22
-87 19 -276 -10 -525 -142 -1236 -140 -1218 -184 -1348 -51 -147 -145 -277
-277 -381 -44 -33 -259 -192 -479 -353 -220 -160 -565 -412 -767 -559 l-368
-268 0 317 c0 174 -3 860 -7 1525 l-6 1207 306 0 307 0 0 -925 c0 -509 3 -925
6 -925 3 0 24 15 47 33 23 19 112 82 198 140 193 133 335 250 388 320 70 92
82 145 141 602 17 132 42 326 56 430 39 282 27 390 -51 497 -19 27 -59 63 -88
83 -99 65 -95 65 -857 65 l-685 0 -3 -1468 c-2 -807 -5 -1468 -6 -1469 -1 -1
-142 118 -315 265 l-313 267 3 1199 4 1200 -320 2 c-176 2 -505 3 -731 3
l-410 1 -150 306 c-82 168 -150 310 -152 315 -2 5 651 10 1630 12 898 1 1773
3 1943 4 171 2 348 -2 395 -7z m-2827 -960 l387 0 0 -180 0 -180 -345 0 -345
0 0 -62 c0 -81 20 -285 76 -786 57 -513 53 -490 78 -517 39 -42 1059 -918
1413 -1215 l161 -135 4 -168 3 -168 115 79 c122 83 222 155 745 542 809 597
964 720 1068 850 l28 35 -28 -57 c-55 -113 -204 -262 -763 -769 -248 -224
-226 -206 -630 -544 -157 -132 -347 -292 -423 -357 -75 -65 -140 -118 -144
-118 -24 0 -593 477 -1363 1144 -589 511 -652 573 -696 699 -45 128 -239 1775
-225 1911 1 4 112 5 249 2 136 -3 421 -6 635 -6z m-721 -3823 c12 -28 30 -66
39 -85 18 -34 18 -34 -4 -29 -12 3 -39 9 -59 12 -31 6 -46 19 -93 81 -30 40
-55 75 -55 76 0 2 34 2 75 0 l75 -4 22 -51z m-185 -29 l27 -28 -49 0 c-42 0
-54 5 -82 32 -18 18 -33 35 -33 38 0 4 25 2 55 -3 38 -7 62 -18 82 -39z m101
-148 c28 -38 52 -71 52 -72 0 -2 -26 -1 -57 1 -42 2 -61 8 -71 22 -18 26 -69
25 -77 -1 -5 -17 -15 -20 -71 -20 -74 0 -73 -5 -7 83 l44 57 67 0 68 0 52 -70z
m2073 43 c-12 -16 -34 -44 -49 -64 -27 -37 -61 -49 -144 -49 l-28 0 45 63 c48
66 56 69 168 75 l29 2 -21 -27z m3154 -30 c22 -31 46 -62 53 -69 11 -12 3 -14
-52 -14 -55 0 -67 3 -76 20 -14 27 -63 27 -81 -1 -12 -17 -23 -20 -76 -17
l-62 3 51 68 50 67 77 0 76 0 40 -57z m-2935 -164 c0 -47 -4 -55 -55 -112
l-55 -62 0 -225 c0 -126 -5 -242 -11 -263 -22 -82 -109 -145 -210 -154 -111
-10 -205 31 -250 110 l-24 42 0 344 0 343 75 0 75 0 5 -332 5 -332 24 -19 c30
-25 92 -25 122 0 l24 19 5 334 5 333 78 3 77 3 1 -63 c0 -47 3 -56 9 -38 4 14
17 46 28 73 17 38 26 47 47 47 23 0 25 -3 25 -51z m324 30 c96 -24 154 -104
163 -225 l6 -74 -77 0 -76 0 0 44 c0 55 -17 104 -40 116 -10 6 -35 10 -55 10
-87 0 -95 -24 -95 -292 0 -242 6 -269 64 -288 78 -25 126 17 126 111 l0 39 76
0 77 0 -7 -67 c-15 -142 -83 -211 -217 -221 -123 -9 -229 51 -257 144 -15 53
-17 492 -1 549 35 130 162 192 313 154z m-2542 -394 c47 -214 89 -403 92 -418
l6 -28 -82 3 -82 3 -13 65 c-24 124 -10 111 -121 108 l-97 -3 -16 -85 -15 -85
-83 -3 c-75 -3 -82 -1 -77 15 9 31 166 751 166 762 0 5 4 21 10 36 l10 26 107
-3 108 -3 87 -390z m425 180 c52 -115 101 -231 110 -257 8 -27 16 -48 17 -48
0 0 -1 117 -3 260 l-3 261 71 -3 71 -3 3 -418 2 -418 -74 3 -73 3 -59 135
c-33 74 -82 191 -110 260 -28 69 -52 126 -53 127 -1 1 0 -117 2 -263 l4 -264
-74 0 -75 0 3 418 c2 229 4 418 4 420 0 2 32 2 71 0 l71 -3 95 -210z m3053
137 l0 -67 -90 0 -90 0 0 -347 0 -346 -77 4 -78 3 -3 343 -2 343 -85 -3 -85
-3 0 70 0 71 248 2 c136 2 250 2 255 0 4 -2 7 -33 7 -70z m230 -94 l0 -168
100 0 100 0 0 168 0 169 78 -1 77 -1 0 -413 0 -414 -77 -5 -78 -4 0 181 0 181
-97 -3 -98 -3 -3 -176 -2 -177 -75 1 -75 1 0 416 0 417 75 0 75 0 0 -169z
m620 -151 c0 -324 2 -346 39 -374 28 -22 99 -16 125 10 30 30 37 113 36 435
l-1 247 78 0 78 0 -3 -330 c-2 -207 -7 -344 -14 -368 -15 -49 -80 -112 -136
-132 -57 -19 -172 -20 -216 -1 -19 8 -52 31 -75 51 -67 61 -71 88 -71 455 0
174 2 319 4 321 3 2 39 4 80 4 l76 1 0 -319z m820 318 c0 -3 39 -184 86 -403
47 -218 86 -404 87 -412 2 -12 -12 -15 -75 -15 -47 0 -79 4 -82 11 -2 6 -10
45 -17 87 l-13 77 -97 0 -98 0 -11 -57 c-25 -126 -15 -115 -105 -115 -44 0
-79 4 -78 9 0 4 31 141 67 303 35 162 74 340 86 395 12 55 23 106 25 113 3 8
35 12 115 12 60 0 110 -2 110 -5z m429 -34 c34 -66 142 -311 178 -401 l33 -85
-3 263 -2 262 73 0 72 0 -2 -417 -3 -418 -71 -3 -70 -3 -92 213 c-50 117 -98
233 -108 258 -9 25 -20 48 -23 52 -3 4 -5 -112 -3 -258 l3 -266 -73 4 -73 3 0
113 c0 61 1 249 3 417 l2 305 70 0 70 0 19 -39z m-6771 -38 l-3 -68 -87 -3
-88 -3 0 -344 0 -345 -80 0 -80 0 0 345 0 345 -85 0 -85 0 0 70 0 70 255 0
256 0 -3 -67z m503 39 c66 -34 99 -91 106 -184 9 -103 -11 -173 -64 -229 l-45
-48 52 -158 c29 -87 55 -164 58 -171 3 -10 -14 -12 -79 -10 l-83 3 -54 163
-53 162 -50 0 -49 0 0 -165 0 -165 -75 0 -75 0 0 415 0 415 179 0 c176 0 180
0 232 -28z m2064 17 c23 -7 57 -28 81 -53 59 -59 67 -105 62 -380 -3 -202 -5
-224 -25 -261 -52 -99 -100 -118 -310 -123 l-163 -4 0 191 0 191 -35 0 -35 0
0 55 0 55 35 0 35 0 0 170 0 170 158 0 c86 0 175 -5 197 -11z m3745 -949 l0
-60 -75 0 -75 0 0 60 0 60 75 0 75 0 0 -60z"/>
<path d="M2801 2850 c-19 -96 -36 -181 -38 -187 -4 -10 14 -13 72 -13 68 0 76
2 71 18 -10 36 -65 298 -68 327 -2 17 -18 -47 -37 -145z"/>
<path d="M8060 2998 c0 -14 -13 -92 -30 -173 -16 -81 -30 -154 -30 -162 0 -10
16 -13 70 -11 39 1 70 4 70 6 0 13 -72 358 -76 361 -2 2 -4 -7 -4 -21z"/>
<path d="M2088 3024 c-5 -4 -8 -59 -8 -122 l0 -114 76 4 c69 3 79 6 100 31 34
40 34 134 0 174 -21 24 -32 28 -92 31 -38 2 -72 0 -76 -4z"/>
<path d="M4205 2920 l0 -100 53 0 52 0 0 -54 0 -55 -51 -3 -51 -3 -2 -119 -3
-118 75 4 c118 6 126 27 120 325 -3 166 -4 172 -27 197 -22 23 -32 26 -95 26
l-71 0 0 -100z"/>
</g>
</svg>
